<svg width="32" height="32" viewBox="0 0 32 32" fill="none" xmlns="http://www.w3.org/2000/svg">
<path d="M5 24.6667V12.6667C5 12.2444 5.09467 11.8444 5.284 11.4667C5.47333 11.0889 5.73422 10.7778 6.06667 10.5333L14.0667 4.53333C14.5333 4.17778 15.0667 4 15.6667 4C16.2667 4 16.8 4.17778 17.2667 4.53333L25.2667 10.5333C25.6 10.7778 25.8613 11.0889 26.0507 11.4667C26.24 11.8444 26.3342 12.2444 26.3333 12.6667V24.6667C26.3333 25.4 26.072 26.028 25.5493 26.5507C25.0267 27.0733 24.3991 27.3342 23.6667 27.3333H19.6667C19.2889 27.3333 18.9724 27.2053 18.7173 26.9493C18.4622 26.6933 18.3342 26.3769 18.3333 26V19.3333C18.3333 18.9556 18.2053 18.6391 17.9493 18.384C17.6933 18.1289 17.3769 18.0009 17 18H14.3333C13.9556 18 13.6391 18.128 13.384 18.384C13.1289 18.64 13.0009 18.9564 13 19.3333V26C13 26.3778 12.872 26.6947 12.616 26.9507C12.36 27.2067 12.0436 27.3342 11.6667 27.3333H7.66667C6.93333 27.3333 6.30578 27.0724 5.784 26.5507C5.26222 26.0289 5.00089 25.4009 5 24.6667Z" fill="#434343"/>
</svg>
